<svg width="135" height="29" viewBox="0 0 135 29" fill="none" xmlns="http://www.w3.org/2000/svg">
<g clip-path="url(#clip0_148_2035)">
<path d="M35.165 28.5377H29.7493V1.66284H35.2008V12.5696C35.7412 11.8091 36.4855 11.2143 37.4369 10.7868C38.3852 10.3592 39.4347 10.1462 40.5839 10.1462C42.6705 10.1462 44.2977 10.7931 45.4562 12.0884C46.6178 13.3837 47.2002 15.1965 47.2002 17.5236V28.5377H41.7813V18.8426C41.7813 18.0821 41.6521 17.4305 41.3952 16.8831C41.1382 16.3356 40.7801 15.908 40.3223 15.5988C39.8676 15.2896 39.3211 15.135 38.6873 15.135C37.9835 15.135 37.3668 15.2848 36.8405 15.5815C36.3111 15.8781 35.9016 16.2993 35.6088 16.8468C35.3145 17.3942 35.1681 18.0364 35.1681 18.7716V28.5377H35.165Z" fill="black"/>
<path d="M63.1688 10.716V15.8846H61.445C59.8957 15.8846 58.6827 16.2648 57.8029 17.0253C56.9231 17.7857 56.4824 19.0463 56.4824 20.8039V28.5378H51.0667V10.7523H56.1647L56.5883 14.5656H56.0962C56.3314 13.3776 56.8639 12.3978 57.697 11.6263C58.5301 10.8532 59.6605 10.4683 61.0916 10.4683C61.4186 10.4683 61.7534 10.4856 62.0928 10.5219C62.4338 10.5566 62.792 10.6229 63.1657 10.7175L63.1688 10.716Z" fill="black"/>
<path d="M64.4348 19.5904C64.4348 17.7129 64.8506 16.0689 65.6836 14.6553C66.5167 13.2417 67.6643 12.142 69.1312 11.3579C70.5964 10.5753 72.2688 10.1809 74.1436 10.1809C76.0184 10.1809 77.6846 10.5738 79.139 11.3579C80.5933 12.142 81.7378 13.2417 82.5694 14.6553C83.4024 16.0689 83.8197 17.7145 83.8197 19.5904C83.8197 21.4663 83.4024 23.1071 82.5694 24.5097C81.7394 25.9123 80.5933 27.0041 79.139 27.7882C77.6846 28.5723 76.0215 28.9652 74.1436 28.9652C72.2657 28.9652 70.5964 28.5739 69.1312 27.7882C67.6659 27.0025 66.5167 25.9107 65.6836 24.5097C64.8506 23.1087 64.4348 21.4679 64.4348 19.5904ZM69.8879 19.5557C69.8879 20.4597 70.0686 21.2486 70.4314 21.9254C70.7942 22.6023 71.2925 23.1261 71.9263 23.4937C72.5585 23.8629 73.2997 24.0459 74.1421 24.0459C74.9845 24.0459 75.7257 23.8629 76.361 23.4937C76.9932 23.1261 77.4868 22.6038 77.8387 21.9254C78.1907 21.247 78.3651 20.4597 78.3651 19.5557C78.3651 18.6517 78.1907 17.8691 77.8387 17.2033C77.4868 16.5375 76.9948 16.0216 76.361 15.6524C75.7257 15.2848 74.9876 15.1002 74.1421 15.1002C73.2965 15.1002 72.5585 15.2848 71.9263 15.6524C71.2941 16.02 70.7958 16.5375 70.4314 17.2033C70.067 17.8691 69.8879 18.6517 69.8879 19.5557Z" fill="black"/>
<path d="M92.3638 28.5377H86.948V10.7158H92.0118L92.6098 13.7813L92.0461 13.1392C92.398 12.4276 93.0333 11.7492 93.9474 11.1071C94.863 10.4665 96.0464 10.1462 97.5008 10.1462C99.0501 10.1462 100.293 10.5375 101.232 11.3232C102.168 12.1058 102.86 13.1281 103.307 14.3871H102.463C102.744 13.1281 103.426 12.1058 104.502 11.3232C105.581 10.5391 106.872 10.1462 108.373 10.1462C110.649 10.1462 112.35 10.7584 113.474 11.9811C114.6 13.2054 115.164 14.8399 115.164 16.8831V28.5377H109.745V18.4151C109.745 17.298 109.481 16.4666 108.955 15.9207C108.429 15.3748 107.73 15.1018 106.862 15.1018C106.344 15.1018 105.852 15.2154 105.385 15.4395C104.914 15.6651 104.525 16.0595 104.223 16.6165C103.919 17.175 103.765 17.9654 103.765 18.9878V28.5393H98.3494V18.4166C98.3494 17.2996 98.0925 16.4745 97.5771 15.9396C97.0586 15.4063 96.3687 15.1381 95.5014 15.1381C94.9829 15.1381 94.4846 15.2517 94.0034 15.4773C93.5223 15.703 93.1299 16.0958 92.8262 16.6543C92.5195 17.2128 92.3684 17.9922 92.3684 18.9893V28.5408L92.3638 28.5377Z" fill="black"/>
<path d="M124.341 29.0001C122.488 29.0001 121.017 28.4841 119.927 27.4492C118.837 26.4158 118.292 25.0321 118.292 23.2966C118.292 21.6574 118.848 20.351 119.961 19.376C121.074 18.401 122.689 17.8314 124.799 17.6642L129.723 17.2729V16.9873C129.723 16.3941 129.606 15.9003 129.371 15.5074C129.136 15.1162 128.804 14.818 128.37 14.6176C127.935 14.4172 127.39 14.3147 126.735 14.3147C125.584 14.3147 124.71 14.5292 124.112 14.9568C123.514 15.3828 123.217 16.0028 123.217 16.809H118.714C118.714 15.4554 119.055 14.28 119.734 13.2797C120.416 12.2826 121.383 11.5111 122.636 10.9636C123.89 10.4161 125.35 10.1448 127.016 10.1448C128.683 10.1448 130.177 10.454 131.362 11.0709C132.544 11.6894 133.449 12.5902 134.07 13.7798C134.692 14.9679 135.001 16.4162 135.001 18.128V28.5362H130.218L129.866 26.1838C129.586 26.9916 128.924 27.6637 127.879 28.1986C126.837 28.7318 125.657 28.9985 124.343 28.9985L124.341 29.0001ZM126.243 24.9374C127.273 24.9374 128.117 24.6819 128.773 24.1707C129.432 23.6595 129.76 22.8943 129.76 21.8719V20.9111L127.015 21.1604C125.841 21.2551 125.017 21.4523 124.536 21.7473C124.055 22.0439 123.815 22.4778 123.815 23.0489C123.815 23.691 124.013 24.1675 124.413 24.4752C124.812 24.7844 125.42 24.939 126.243 24.939V24.9374Z" fill="black"/>
<path d="M9.16387 6.49694C9.25886 6.43698 9.37876 6.41647 9.47686 6.36283L7.29062 1.11377C6.90601 1.28416 6.51983 1.45613 6.15702 1.66597C4.944 2.36963 3.91784 3.27366 3.04272 4.33231L7.26415 8.5527C7.76711 7.71651 8.37128 6.99549 9.16387 6.49536V6.49694Z" fill="#D9A404"/>
<path d="M14.6215 7.29387C16.1927 7.29387 17.5131 7.64886 18.5813 8.36199C19.6464 9.07511 20.3674 10.0959 20.7427 11.4275H26.761C26.501 9.45534 25.833 7.74352 24.7539 6.29518C23.6748 4.84526 22.2858 3.72192 20.5854 2.92675C18.885 2.13158 16.9432 1.73242 14.7617 1.73242C14.6044 1.73242 14.4596 1.75451 14.3054 1.75767V7.33174C14.416 7.327 14.5094 7.29229 14.6215 7.29229V7.29387Z" fill="black"/>
<path d="M12.4883 5.57407V0C10.5761 0.0520646 8.84456 0.422828 7.29053 1.11387L9.47676 6.36135C10.3503 5.88173 11.3531 5.61667 12.4883 5.57407Z" fill="#5543D6"/>
<path d="M20.8829 19.1975C20.5341 20.5039 19.7975 21.5326 18.6842 22.2804C17.5708 23.0282 16.2161 23.4037 14.6216 23.4037C13.2388 23.4037 12.0367 23.0772 11.0168 22.424C9.9953 21.7708 9.21049 20.8384 8.65771 19.6267C8.16409 18.5365 7.92429 17.2475 7.87446 15.8118L1.8374 15.8528C1.89346 18.4308 2.39019 20.6885 3.36341 22.6023C4.39424 24.6344 5.85951 26.2026 7.76079 27.307C9.66207 28.4114 11.9121 28.9652 14.5141 28.9652C16.6957 28.9652 18.653 28.5613 20.3893 27.7535C22.127 26.9473 23.5503 25.805 24.6636 24.3314C25.777 22.8578 26.487 21.1476 26.7938 19.1991H20.8813L20.8829 19.1975Z" fill="black"/>
<path d="M6.01837 13.5903C6.01837 12.7715 6.08689 12.0126 6.21458 11.309L0.624416 9.00708C0.224229 10.4207 0 11.9479 0 13.6251C0 13.786 0.0186858 13.9343 0.0218001 14.0936L6.05886 14.0526C6.05263 13.8917 6.01682 13.7544 6.01682 13.5903H6.01837Z" fill="#04ADBF"/>
<path d="M6.82507 9.25973C6.94497 8.99309 7.12093 8.79272 7.26419 8.55291L3.04276 4.33252C2.51333 4.97307 2.02594 5.65465 1.61953 6.42457C1.19754 7.22447 0.881441 8.09695 0.624512 9.00572L6.21311 11.306C6.34703 10.5598 6.5479 9.87346 6.82507 9.25815V9.25973Z" fill="#BF414C"/>
</g>
<defs>
<clipPath id="clip0_148_2035">
<rect width="135" height="29" fill="white"/>
</clipPath>
</defs>
</svg>
